# xmcd CD database file
#
# Track frame offsets:
#	150
#	48563
#	87188
#	142988
#	182938
#	239613
#
# Disc length: 3349 seconds
#
# Revision: 0
# Processed by: cddbd v1.5.2PL0 Copyright (c) Steve Scherf et al.
# Submitted via: CDex 1.70beta3
#
DISCID=500d1306
DTITLE=ZEK3 - ZEK ! – A Piano Trio only plays the music of Led Zeppelin - Disc2
DYEAR=2016
DGENRE=Jazz
TTITLE0=Bring it on Home
TTITLE1=Ramble on
TTITLE2=Friends
TTITLE3=Ten Years Gone
TTITLE4=Whole Lotta Love
TTITLE5=Intermezzo
EXTD=YEAR: 2016
EXTT0=
EXTT1=
EXTT2=
EXTT3=
EXTT4=
EXTT5=
PLAYORDER=
